<?xml version="1.0" encoding="UTF-8" standalone="no"?>
<svg
   version="1.1"
   id="Layer_1"
   x="0px"
   y="0px"
   width="558.9093"
   viewBox="0 0 558.9093 548.82324"
   enable-background="new 0 0 1024 1024"
   xml:space="preserve"
   sodipodi:docname="file.svg"
   height="548.82324"
   inkscape:version="1.2.2 (b0a8486541, 2022-12-01)"
   xmlns:inkscape="http://www.inkscape.org/namespaces/inkscape"
   xmlns:sodipodi="http://sodipodi.sourceforge.net/DTD/sodipodi-0.dtd"
   xmlns="http://www.w3.org/2000/svg"
   xmlns:svg="http://www.w3.org/2000/svg"><defs
   id="defs103" /><sodipodi:namedview
   id="namedview101"
   pagecolor="#ffffff"
   bordercolor="#000000"
   borderopacity="0.25"
   inkscape:showpageshadow="2"
   inkscape:pageopacity="0.0"
   inkscape:pagecheckerboard="0"
   inkscape:deskcolor="#d1d1d1"
   showgrid="false"
   inkscape:zoom="0.78613281"
   inkscape:cx="281.12298"
   inkscape:cy="308.47205"
   inkscape:window-width="1854"
   inkscape:window-height="1011"
   inkscape:window-x="0"
   inkscape:window-y="0"
   inkscape:window-maximized="1"
   inkscape:current-layer="Layer_1" />
<path
   fill="#000000"
   opacity="1"
   stroke="none"
   d="m 346.7053,523.22721 c 46.47821,-12.7528 86.6402,-35.47644 120.76764,-69.19403 25.57996,-25.2727 45.01184,-54.29004 57.37305,-87.98218 9.82367,-26.77569 13.85016,-54.47631 15.09137,-83.03909 1.35882,-31.27109 -4.44727,-60.9635 -14.35291,-90.08697 -13.57232,-39.90387 -34.97821,-75.20969 -65.6604,-104.308628 -28.42297,-26.95627 -61.35052,-46.89377 -98.69024,-59.06648 -17.91028,-5.83875 -36.33747,-9.51538 -55.1969,-10.86482 -6.10578,-0.43689 -12.16791,-1.48423 -18.02887,-2.22441 -1.33997,1.68895 -0.92694,3.24868 -0.92676,4.69818 0.004,26.83298 0.0197,53.66603 0.0862,80.498908 0.0204,8.20615 0.37982,8.54743 8.39545,8.47132 21.32525,-0.20242 42.65002,-0.64096 63.97491,-0.63645 22.99194,0.005 45.98358,0.4831 68.97595,0.55362 3.56647,0.011 4.99073,1.89789 6.28888,4.56607 14.13819,29.05909 28.37757,58.06937 42.40723,87.18067 5.71094,11.85016 10.99731,23.90551 16.41852,35.89389 0.59094,1.30664 1.65661,2.56973 0.92059,4.81607 -5.23462,-0.71698 -10.63708,-0.70468 -16.05438,-0.35318 -2.28302,0.1481 -3.08008,-2.32517 -3.92365,-4.09195 -11.1239,-23.297 -22.21606,-46.60913 -33.29065,-69.92954 -2.41571,-5.0867 -4.86877,-10.14337 -8.6892,-15.74118 -4.52851,8.89853 -9.30066,16.883 -12.78351,25.39502 -8.58441,20.97965 -20.60712,40.38181 -28.0727,61.85416 -0.48889,1.40622 -1.18762,3.26703 -2.95733,2.87802 -5.39875,-1.18658 -10.82868,-0.68957 -17.46656,-0.16095 16.27588,-38.54132 35.21186,-74.74331 51.13019,-112.22079 -1.41302,-2.24225 -3.50146,-2.04367 -5.45038,-2.03949 -40.32574,0.0865 -80.65155,0.20526 -120.97729,0.28891 -7.59888,0.0157 -8.0506,0.44391 -8.11505,7.73571 -0.90326,102.15705 -0.74732,204.31687 -0.81549,306.47611 -0.0153,22.83313 -0.0238,45.6662 -0.0323,68.49933 -0.004,10.33648 -0.56207,20.63769 -1.81915,30.9024 -0.78375,6.40033 -1.23127,7.00202 -7.81485,6.79486 C 251.5523,547.97654 226.03426,544.96165 201.03804,537.7852 163.53673,527.01853 129.41155,509.72496 99.167228,485.17204 69.267448,460.89878 46.147938,430.96397 28.357318,396.8823 15.607288,372.45695 7.2030679,346.47618 2.9378279,319.36772 c -3.81420001,-24.24158 -3.73670001,-48.70224 -0.7929,-73.15549 2.21648,-18.41168 6.19837,-36.42639 11.6813401,-54.0571 10.50731,-33.78668 27.24745,-64.32208 49.62752,-91.74075 26.05551,-31.921628 58.092802,-55.992938 95.327542,-73.533888 24.42947,-11.5085 49.71719,-20.06951 76.39606,-24.0638 16.76611,-2.51015997 33.61746,-3.24498997 50.70968,-2.58997997 12.96296,0.49676 25.86768,0.96869997 38.68348,2.77044997 34.42144,4.8392 66.4964,16.5119 96.28772,34.30461 71.46197,42.68036 114.16394,105.886778 131.90637,186.506558 3.74689,17.02533 6.60791,34.42261 6.08227,51.91745 -1.10699,36.84366 -6.87268,72.91153 -22.01239,106.87631 -16.51074,37.04071 -40.10479,69.10327 -70.46026,95.92194 -41.40869,36.5841 -89.8946,58.39477 -144.36866,66.97351 -9.02661,1.42145 -18.18646,1.99133 -27.28063,2.99237 -3.02265,0.33264 -5.18311,-0.57868 -4.69959,-3.96204 0.59638,-4.17279 0.0397,-8.26819 -0.4704,-13.10388 19.1698,-2.02801 38.26862,-3.08307 57.15033,-8.19678 M 196.80912,272.10511 c 2.2157,-9.33291 2.21338,-9.52881 11.86682,-9.64337 18.99576,-0.22558 37.99433,-0.22699 56.99186,-0.27743 2.85394,-0.008 4.59643,-0.43894 4.56591,-4.11954 -0.24035,-28.99417 -0.27252,-57.99005 -0.36889,-86.98541 -0.0127,-3.82499 -0.0555,-7.65012 -0.0303,-11.47486 0.0207,-3.14093 -1.1195,-4.75744 -4.60421,-5.10916 -12.23777,-1.2352 -24.47278,-2.57828 -36.65406,-4.27414 -19.90551,-2.77115 -39.0072,-8.44745 -57.22384,-16.95825 -3.79941,-1.77509 -5.83966,-1.30188 -7.47217,2.94238 -2.4176,6.28534 -5.58463,12.28244 -8.43625,18.41016 -8.60428,-4.41376 -11.11902,-9.81311 -8.83761,-17.94684 0.44564,-1.58887 0.7254,-3.23627 0.93466,-4.87549 0.15811,-1.23852 -0.21708,-2.557 -1.60416,-2.71057 -4.31,-0.4772 -8.62021,-2.40854 -13.74368,-0.24307 18.09155,37.28027 37.39007,73.6022 54.63052,111.6661 -5.15323,0.25834 -9.16272,0.15549 -13.06882,0.74167 -3.80789,0.57154 -5.78647,-0.80505 -7.41165,-4.15441 -6.32736,-13.0402 -12.86938,-25.97651 -19.37286,-38.93073 -0.98865,-1.9693 -1.70563,-4.20749 -3.83478,-5.54623 -2.33606,2.98403 -3.24377,6.16372 -4.09164,9.38943 -3.09821,11.78677 -4.18656,23.90573 -5.90314,35.91651 -0.49158,3.43957 -1.91135,5.14651 -5.4867,4.84463 -1.48916,-0.12579 -2.99826,-0.003 -4.49807,-0.0174 -6.02408,-0.0578 -6.45127,-0.74118 -6.08997,-6.67984 0.81253,-13.35482 3.17694,-26.48733 6.96579,-39.22586 2.40692,-8.0925 2.30634,-17.24008 8.61453,-23.9783 0.67112,-0.71689 0.28202,-1.58124 -0.0183,-2.35254 -2.57626,-6.61639 -5.85223,-12.8425 -10.21338,-19.05948 -2.94155,5.54889 -5.66885,10.50522 -8.22534,15.54816 -12.0365,23.74289 -24.366972,47.35355 -33.270082,72.53372 -0.48257,1.36484 -1.2041,2.51801 -2.78869,2.37522 -5.37754,-0.48459 -10.74527,-1.07755 -15.81327,-1.59797 -0.71234,-1.58657 -0.20587,-2.5039 0.20767,-3.39352 10.60251,-22.80722 20.71253,-45.83679 31.70581,-68.47104 9.084872,-18.70499 19.142922,-36.98572 26.183202,-56.63898 0.6882,-1.92108 1.603,-2.6781 3.6608,-2.29324 6.93848,1.29764 13.99597,-0.007 20.92697,0.72125 8.81778,0.92627 15.79785,-0.58264 18.20819,-10.470178 0.11322,-0.46439 0.48071,-0.87137 0.74945,-1.29254 18.10428,-28.37393 39.91586,-53.27465 67.84335,-72.45337 2.14591,-1.47365 4.34693,-2.92011 6.44556,-5.82779 -3.19967,0.31491 -5.65292,0.38 -8.03689,0.82033 -12.96439,2.39451 -25.65067,5.89853 -37.97403,10.53717 -29.82642,11.22694 -57.43015,26.38484 -82.4307,46.32533 -9.77951,7.80011 -10.250122,8.53387 -1.02701,17.00931 6.08771,5.594138 5.94901,5.544798 3.33527,12.891628 -1.33221,3.74466 -3.45251,4.68091 -6.82517,2.92419 -5.01864,-2.61404 -10.125542,-5.10684 -14.907892,-8.10849 -2.93582,-1.84268 -4.63559,-1.85656 -7.12043,0.85688 -15.41311,16.83117 -28.05426,35.52942 -38.34597,55.85052 -15.64563,30.89249 -23.02899,64.03845 -26.73777,98.19034 -0.37092,3.41556 0.91552,4.28177 4.21303,4.14603 7.32283,-0.30136 14.66246,-0.21872 21.99538,-0.23307 1.79541,-0.004 4.35373,-0.19781 4.39648,2.1583 0.0912,5.02377 1.63215,9.72952 3.1308,15.24484 -11.7742,0 -22.85287,0 -34.26561,0 0.0876,66.31567 24.57006,121.94629 68.81093,170.28278 17.074072,-13.39356 35.393072,-24.11762 54.044592,-34.53144 -1.84708,-4.06122 -3.55481,-7.48217 -4.98499,-11.0155 -8.7279,-21.56256 -13.47513,-44.21185 -17.91263,-66.91711 -1.5559,-7.96106 -1.18249,-8.03406 7.29904,-8.3393 7.8599,-0.28284 7.59836,-0.22137 9.3231,7.12018 4.98059,21.20111 8.89511,42.69812 17.79174,62.81873 3.62348,8.19488 3.59564,8.46337 11.88294,5.53888 0.31375,-0.11066 0.60974,-0.27149 0.92276,-0.38459 32.26538,-11.65735 65.638,-18.15985 99.7305,-21.13403 3.95163,-0.34485 5.23474,-1.86151 5.23223,-5.50507 -0.021,-30.49341 -0.5212,-60.99127 0.61997,-91.47522 0.15872,-4.2398 -1.27966,-5.64483 -5.75156,-5.66751 -20.98709,-0.10638 -41.96579,1.75241 -62.9595,0.20911 -6.0282,-0.44315 -6.60428,-0.99231 -4.88782,-7.70087 m 41.76764,236.01017 c 9.71613,6.40094 19.10233,13.37811 29.8013,18.09301 1.4578,-2.46203 1.11432,-4.34527 1.12308,-6.1391 0.0814,-16.66394 -0.036,-33.33001 0.18231,-49.99182 0.29462,-22.48645 -0.55914,-44.98413 0.64282,-67.45904 0.15479,-2.89411 -1.10492,-3.89612 -3.80835,-3.82996 -6.6629,0.16303 -13.24661,1.05804 -19.83902,1.9375 -27.11828,3.61755 -53.82879,8.92084 -79.37088,19.07758 -1.31253,0.52185 -3.01339,0.57891 -3.72817,2.74749 18.33627,33.8144 42.66287,62.70008 74.99691,85.56434 M 208.13404,67.290992 c -11.71514,12.65278 -23.32901,25.37638 -30.0354,41.625398 1.74839,1.38428 3.12003,1.19358 4.40958,1.18378 27.1553,-0.20636 54.31027,-0.49356 81.46591,-0.59601 4.37335,-0.0165 5.71457,-1.91107 5.944,-5.99036 1.40595,-24.995268 -0.87637,-49.955928 -0.54901,-74.937278 0.0112,-0.85373 -0.23334,-1.6458 -1.74286,-2.34192 -21.75601,9.99547 -41.33252,23.867 -59.49222,41.05639 M 104.35816,466.35777 c 20.7529,17.45813 43.13337,32.27618 68.16865,43.00964 19.9219,8.5412 40.55456,14.43091 62.15985,18.67505 -0.78916,-2.11371 -2.15513,-2.85303 -3.33057,-3.672 -33.09821,-23.06195 -58.53024,-53.08282 -79.47876,-87.22595 -4.58804,-7.47778 -3.18091,-7.71014 -11.56311,-3.02527 -1.44986,0.81024 -3.01743,1.40698 -4.49158,2.17706 -11.39847,5.95423 -22.28634,12.65845 -31.74487,21.48945 -2.87616,2.6853 -4.126622,5.28637 0.28039,8.57202 M 257.25279,127.76954 c -17.02439,0 -34.04877,0 -52.39856,0 3.23889,2.61664 5.836,2.94812 8.34982,3.46222 16.94437,3.46524 34.49884,2.57449 51.2803,7.05423 6.05311,1.61594 5.12409,-2.93222 5.75098,-5.92197 0.83414,-3.97815 -1.61682,-4.83947 -5.01095,-4.61682 -2.31882,0.1521 -4.65571,0.0288 -7.97159,0.0223 z"
   id="path72" />
<path
   fill="#000000"
   opacity="1"
   stroke="none"
   d="m 381.29002,309.93571 c 8.53107,8.37646 18.58404,13.39417 29.48602,16.93066 5.99548,1.94489 10.62305,9.58966 9.51038,15.78717 -3.65326,20.34839 -8.58588,40.35425 -16.23572,59.61121 -2.47705,6.23566 -2.81689,6.20019 -9.20404,4.01843 -21.97022,-7.50451 -44.75098,-11.54321 -67.54816,-15.4273 -7.36932,-1.25544 -14.83355,-2.03223 -22.28375,-2.70075 -3.73535,-0.33508 -5.31555,-1.89166 -5.29041,-5.61401 0.13721,-20.32795 0.12464,-40.65692 0.2981,-60.98444 0.0767,-8.99231 0.4054,-17.98431 0.73969,-26.97201 0.30102,-8.09446 1.39007,-8.17093 9.31488,-9.448 10.63812,-1.7143 21.12695,-2.18753 31.74542,-0.66938 3.29114,0.47052 6.64276,0.76246 9.53827,2.66352 3.49975,2.29788 6.78961,4.55185 11.49097,2.48721 2.59106,-1.13791 4.04797,1.64414 5.3067,3.58957 3.8042,5.87988 7.55426,11.79419 13.13165,16.72812 z"
   id="path74" />
<path
   fill="#000000"
   opacity="1"
   stroke="none"
   d="m 382.37156,45.729212 c 15.25959,8.21083 31.08917,14.72521 44.38043,25.54198 10.18946,8.29245 21.40491,15.30966 30.67267,24.75354 1.87683,1.91251 3.2295,3.78998 2.21576,6.775658 -3.7652,-1.6015 -7.47754,-1.45971 -11.01654,0.68369 1.19672,5.92136 4.48077,7.77182 9.58759,4.30768 4.42437,-3.00125 7.06946,-1.15012 9.97119,1.52224 10.63611,9.79557 18.77429,21.64322 26.29828,33.78788 17.53796,28.30835 28.94342,59.10412 35.02093,91.81158 1.45239,7.81659 1.70923,15.85398 2.55005,23.78617 0.38007,3.5852 -1.00183,5.25009 -4.76971,5.09011 -4.48957,-0.19061 -8.99304,-0.1018 -13.48981,-0.0607 -3.48822,0.0319 -5.51264,-1.57019 -5.22424,-5.10113 1.11425,-13.64234 -4.57672,-25.30353 -10.44318,-36.95667 -15.56946,-30.92703 -31.18042,-61.83258 -45.20837,-93.50827 -3.00306,-6.78088 -3.63935,-14.14645 -5.88245,-21.11581 -1.02801,-3.19409 -2.52814,-4.83295 -5.56946,-5.46494 -5.22864,-1.08639 -10.52057,-1.668638 -15.85101,-1.729088 -8.66083,-0.0982 -17.33747,-0.37723 -25.97943,0.0241 -5.39356,0.250518 -8.56122,-1.90854 -11.38837,-6.23951 -4.72784,-7.24264 -9.86316,-14.23388 -15.08026,-21.13958 -10.88641,-14.40988 -22.94055,-27.68317 -38.04108,-37.88684 -0.7597,-0.51337 -1.26306,-1.40616 -1.56781,-2.95777 16.93018,2.01084 32.68207,8.04709 48.81482,14.0757 z"
   id="path76" />
<path
   fill="#000000"
   opacity="1"
   stroke="none"
   d="m 304.41734,517.31974 c -4.80445,2.16797 -5.01434,-0.66974 -5.00891,-3.87292 0.0356,-20.95636 0.0485,-41.91266 0.0705,-62.86902 0.0149,-14.14911 0.2049,-28.30121 -0.0476,-42.44556 -0.0844,-4.72809 1.64587,-5.87207 5.89184,-4.99237 25.17304,5.21552 51.02454,7.12995 75.53192,15.62531 2.88471,0.99994 5.80701,1.53912 6.65662,4.67682 1.98914,0.6018 3.31415,-1.88715 5.15698,-0.15046 1.03827,1.66816 -0.40564,2.95429 -1.13476,4.34913 -10.90009,20.85174 -25.32941,38.92004 -42.28089,55.22216 -13.6181,13.09638 -27.73962,25.34705 -44.83569,34.45691 z"
   id="path78" />
<path
   fill="#000000"
   opacity="1"
   stroke="none"
   d="m 430.37083,373.16093 c 2.72766,-12.74689 5.44745,-25.07434 8.03619,-37.4292 0.62104,-2.96393 1.53998,-5.14984 5.17249,-4.42407 0.47412,0.0947 0.99945,0.0139 1.48901,-0.0626 2.50086,-0.39087 4.71259,-3.47358 7.36878,-1.42566 2.03601,1.56976 1.67083,4.61425 2.72345,6.84515 1.77105,3.7536 3.63916,7.47308 5.69458,11.07678 1.37896,2.41779 3.69531,3.81348 6.46502,4.27942 1.47278,0.24787 2.97071,0.37049 4.46241,0.47815 10.76123,0.77686 12.375,1.68152 14.54077,12.00495 1.24817,5.94946 4.61749,7.82434 9.94458,8.49499 7.28161,0.91681 14.00567,0.7804 18.20739,-8.09723 1.42713,4.32929 -0.22967,6.77692 -1.1593,9.19751 -7.64618,19.90845 -18.59997,37.88306 -31.99457,54.42889 -3.55657,4.39325 -7.11895,8.8136 -10.2539,13.50538 -2.1344,3.19433 -4.08734,3.31573 -6.89838,1.17047 -13.95123,-10.64704 -29.11993,-19.27448 -44.94623,-26.76752 -3.57263,-1.69147 -2.651,-4.07459 -1.53027,-6.61884 5.17468,-11.74676 9.4895,-23.79046 12.67798,-36.65655 z"
   id="path80" />
<path
   fill="#000000"
   opacity="1"
   stroke="none"
   d="m 397.08976,305.23954 c -16.7774,-11.98782 -23.86792,-28.69311 -26.09729,-47.76834 1.86353,-1.61587 3.42072,-1.27621 4.88214,-1.27386 38.31635,0.0619 76.63263,0.13461 114.94898,0.22708 6.46734,0.0156 6.56995,0.22992 4.86352,6.53308 -3.2016,11.82614 -7.41546,23.19232 -15.65142,32.55813 -10.19806,11.5972 -23.14899,18.20127 -38.38196,20.27128 -16.0365,2.17913 -30.68787,-1.85279 -44.56397,-10.54737 z"
   id="path82" />
<path
   fill="#000000"
   opacity="1"
   stroke="none"
   d="m 390.73271,176.34782 c -6.67334,13.3335 -11.81366,27.04687 -19.85169,39.19012 -2.80877,-1.01361 -1.45288,-3.58722 -3.06982,-5.0805 -2.66016,0.61352 -4.52863,2.87198 -6.84528,4.30362 -2.89911,1.79162 -6.01422,4.21304 -8.84253,0.79596 -2.65155,-3.20359 0.24201,-6.18448 1.97925,-8.85312 1.13812,-1.74823 3.0921,-2.79224 3.26148,-5.34345 0.43304,-6.52612 -4.66382,-10.1615 -11.39191,-7.80237 -2.68634,0.94199 -5.07446,4.30408 -8.15552,2.00043 -5.09473,-3.80923 -12.25726,-5.93423 -13.90375,-12.93497 -1.50579,-6.40264 -6.53894,-8.88586 -10.96661,-12.2001 -2.10938,-1.57889 -4.45429,-0.6933 -6.66669,0.2016 -3.71881,1.5043 -5.39196,-0.10074 -5.48871,-3.78488 -0.22271,-8.48523 -0.33947,-16.97333 -0.58538,-25.45777 -0.11145,-3.84478 2.6839,-3.17184 4.85913,-3.17672 14.97937,-0.0336 29.95886,0.0219 44.93835,0.0388 11.98358,0.0135 23.97022,0.16928 35.94916,-0.0627 4.42072,-0.0857 7.38086,1.04905 8.7016,5.53894 0.74835,2.54392 1.76361,5.03623 2.91394,7.42905 2.12921,4.42914 1.80298,8.65161 -0.47406,12.89792 -2.12232,3.95743 -4.13263,7.97485 -6.36096,12.30011 z"
   id="path84" />
<path
   fill="#000000"
   opacity="1"
   stroke="none"
   d="m 349.01353,513.83293 c -4.35309,0.88519 -8.15735,2.59216 -13.5556,2.31536 4.50293,-3.71051 8.01757,-6.88641 11.81091,-9.6845 17.66217,-13.02826 31.06897,-29.95722 43.76349,-47.53345 5.95471,-8.24469 11.27545,-16.90491 15.39886,-26.22095 1.49536,-3.37854 3.51868,-3.58966 6.27661,-1.93426 13.68671,8.2149 27.62146,16.04827 40.18744,25.99383 0.21552,0.17059 0.22974,0.59558 0.3111,0.82599 -29.87244,27.50043 -64.91425,45.37988 -104.19281,56.23798 z"
   id="path86" />
<path
   fill="#000000"
   opacity="1"
   stroke="none"
   d="m 354.21849,75.027962 c 6.33599,7.86643 12.83477,15.19278 17.37463,23.74436 -2.0426,2.564598 -4.38269,1.832058 -6.41718,1.806878 -14.64233,-0.1813 -29.28808,0.11182 -43.9295,-0.622828 -5.4541,-0.27365 -10.9541,0.419098 -16.43524,0.613738 -2.66803,0.0948 -5.23981,-0.2388 -5.24567,-3.757198 -0.0361,-21.76349 -0.0181,-43.52707 -0.0181,-66.8574 21.66187,11.63071 39.54187,26.34196 54.67109,45.07245 z"
   id="path88" />
<path
   fill="#000000"
   opacity="1"
   stroke="none"
   d="m 531.10868,301.66798 c -0.18963,11.7598 -2.37158,22.64432 -6.27661,33.57199 -2.41516,-4.42426 -5.63598,-5.48438 -10.05841,-5.04016 -3.0448,0.30585 -4.4519,-2.39966 -5.28503,-5.13312 -1.11591,-3.66132 -2.18067,-7.34808 -3.52375,-10.92767 -1.64563,-4.38599 -4.8222,-5.67621 -9.19366,-3.91522 -0.9256,0.37292 -1.82513,0.8814 -2.7876,1.07659 -1.80359,0.36579 -3.91723,0.77424 -5.18994,-0.7594 -1.53436,-1.84887 0.21027,-3.42651 1.3056,-4.80096 5.42762,-6.8107 10.29346,-13.95392 13.10474,-22.28012 1.00568,-2.97855 2.92896,-4.25165 5.96875,-4.23065 5.83148,0.0403 11.66333,0.0171 17.49506,0.0304 3.64276,0.008 5.62384,1.60749 5.37561,5.48969 -0.35041,5.47952 -0.62024,10.96414 -0.93476,16.91867 z"
   id="path90" />
<path
   fill="#000000"
   opacity="1"
   stroke="none"
   d="m 433.31108,178.03105 c -0.32764,-1.94419 -0.0202,-3.29261 1.97662,-3.93433 3.0954,1.83719 4.61713,5.05289 6.04431,8.13782 8.29285,17.92547 17.93573,35.20761 25.43762,53.51153 1.31769,3.21509 0.17707,5.0799 -2.83136,5.36664 -6.93383,0.66095 -13.90509,0.97571 -20.86816,1.26077 -2.78839,0.11414 -3.50189,-1.9732 -3.76373,-4.33197 -1.15277,-10.38348 -1.88648,-20.81955 -3.83106,-31.10495 -1.25738,-6.6502 -2.53937,-13.29574 -3.79388,-19.85778 6.19293,-2.58869 6.29919,-3.23935 1.62964,-9.04773 z"
   id="path92" />
<path
   fill="#000000"
   opacity="1"
   stroke="none"
   d="m 403.76402,229.53135 c 4.24377,-9.216 7.23566,-18.61175 12.75305,-27.0611 3.03577,1.33503 2.78857,4.19199 3.3335,6.39536 2.23687,9.04416 2.93084,18.34006 4.07672,27.55627 0.63641,5.11869 -0.47003,6.2638 -5.65406,6.1565 -4.65911,-0.0965 -9.31103,-0.55692 -13.96997,-0.63895 -4.30328,-0.0757 -5.31964,-1.95312 -3.60022,-5.69919 0.97248,-2.11859 1.93897,-4.23989 3.06098,-6.70889 z"
   id="path94" />
<path
   fill="#000000"
   opacity="1"
   stroke="none"
   d="m 326.18943,212.31159 c 2.12213,-4.19375 6.27027,-5.32452 9.44623,-7.62155 1.82886,-1.32275 3.87921,0.0305 5.23486,1.63108 1.8556,2.19076 2.80652,4.95663 1.01899,7.34414 -2.67267,3.56977 -5.85279,6.77268 -8.9433,10.01123 -1.61444,1.69181 -3.04163,0.53852 -4.19989,-0.79782 -2.555,-2.94778 -3.47602,-6.35846 -2.55689,-10.56708 z"
   id="path96" />
<path
   fill="#000000"
   opacity="1"
   stroke="none"
   d="m 61.922648,269.06022 c -1.0853,-4.2167 -2.39786,-7.9982 -2.04318,-11.9397 1.97244,-1.45987 4.03356,-0.96102 5.98034,-0.96203 38.275062,-0.0195 76.550082,-0.005 114.825142,-0.007 6.57919,-3.1e-4 6.99493,0.0768 5.46029,6.67685 -5.81427,25.00531 -19.04113,44.21139 -45.02148,50.81399 -31.54138,8.01587 -67.429232,-4.92724 -79.201112,-44.58209 z"
   id="path98" />
</svg>
